<svg width="800" height="800" viewBox="0 0 800 800" xmlns="http://www.w3.org/2000/svg">
  <rect width="800" height="800" fill="#020202" />
  <g stroke="#14f195" stroke-width="1" opacity="0.35">
    <path d="M0 700 L800 500" />
    <path d="M0 650 L800 450" />
    <path d="M0 600 L800 400" />
    <path d="M0 550 L800 350" />
    <path d="M0 500 L800 300" />
    <path d="M0 450 L800 250" />
  </g>
  <g stroke="#00a2ff" stroke-width="1" opacity="0.35">
    <path d="M100 780 L200 200" />
    <path d="M200 780 L320 180" />
    <path d="M300 780 L440 160" />
    <path d="M400 780 L560 180" />
    <path d="M500 780 L680 200" />
    <path d="M600 780 L760 240" />
  </g>
  <text x="80" y="150" font-family="'IBM Plex Mono', 'SFMono-Regular', monospace" font-size="22" fill="#f4ff37" letter-spacing="6">DIGITAL GAMES</text>
  <text x="80" y="190" font-family="'IBM Plex Mono', 'SFMono-Regular', monospace" font-size="16" fill="#2dff80">PLEASE BREATHE · WAIT FOR ME</text>
  <circle cx="640" cy="120" r="46" stroke="#ff3d48" stroke-width="6" fill="none" />
  <circle cx="640" cy="120" r="16" fill="#ff3d48" />
</svg>
